<svg width="32" height="34" viewbox="0 0 82 86" xmlns="http://www.w3.org/2000/svg"><g fill-rule="nonzero" fill="none"><g fill="#EDC951"><path d="M14 20H0v19.4h18.7V24.7c0-2.6-2.1-4.7-4.7-4.7Z"/><path d="M37.6 13.9C36.8 6.8 31.3 1.2 24.5.4c-.6-.1-1.2-.1-1.8-.1H0V13h17.7c4.3 0 7.8 3.6 7.8 8v18.3h12.3V15.8c0-.5-.1-1.1-.2-1.9Z"/></g><g fill="#00A0B0"><path d="M19.7 71.1v14h18V66.4H24.1c-2.4 0-4.4 2.1-4.4 4.7Z"/><path d="M15 45.9c-.5 0-1.1 0-1.8.1C6.3 46.9.9 52.5.1 59.6c-.1.8-.1 1.4-.1 2V85h12.3V66.7c0-4.5 3.5-8 7.8-8h17.7V45.9H15Z"/></g><g fill="#FF9C5B"><path d="M62.6 14.7V.3H44.1v19.2H58c2.6-.1 4.6-2.2 4.6-4.8Z"/><path d="M69.6.3v18.3c0 4.5-3.5 8-7.8 8H44.1v12.7h22.6c.5 0 1.1 0 1.8-.1 6.9-.8 12.3-6.5 13.1-13.6.1-.7.1-1.4.1-1.9V.3H69.6Z"/></g><g fill="#7ABD9A"><path d="M63.9 45.9v14c0 2.6 2.1 4.7 4.5 4.7h13.5V45.9h-18Z"/><path d="M56.4 64.3V45.9H44.1v23.4c0 .5 0 1.2.1 1.9.8 7.2 6.3 12.8 13.1 13.6.7.1 1.3.1 1.8.1h22.7V72.3H64.2c-4.3 0-7.8-3.6-7.8-8Z"/></g></g></svg>